PathFileType	4	(X/Y/Z)	C:/Users/opensim2020/Desktop/walking_exp_matlab/subject06_walking15_straight_04.trc	
DataRate	CameraRate	NumFrames	NumMarkers	Units	OrigDataRate	OrigDataStartFrame	OrigNumFrames	
100.00	100.00	8	47	mm	100.00	2999	157	
Frame#	Time	LFHD			RFHD			LBHD			RBHD			C7			T10			CLAV			STRN			RBAK			LSHO			LUPA			LELB			LFRM			LWRA			LWRB			LFIN			RSHO			RUPA			RELB			RFRM			RWRA			RWRB			RFIN			LASI			RASI			LPSI			RPSI			LTHI			LKNE			LTIB			LANK			LHEE			LTOE			RTHI			RKNE			RTIB			RANK			RHEE			RTOE			*39			*40			*41			*42			*43			*44			*45			*46			
		X1	Y1	Z1	X2	Y2	Z2	X3	Y3	Z3	X4	Y4	Z4	X5	Y5	Z5	X6	Y6	Z6	X7	Y7	Z7	X8	Y8	Z8	X9	Y9	Z9	X10	Y10	Z10	X11	Y11	Z11	X12	Y12	Z12	X13	Y13	Z13	X14	Y14	Z14	X15	Y15	Z15	X16	Y16	Z16	X17	Y17	Z17	X18	Y18	Z18	X19	Y19	Z19	X20	Y20	Z20	X21	Y21	Z21	X22	Y22	Z22	X23	Y23	Z23	X24	Y24	Z24	X25	Y25	Z25	X26	Y26	Z26	X27	Y27	Z27	X28	Y28	Z28	X29	Y29	Z29	X30	Y30	Z30	X31	Y31	Z31	X32	Y32	Z32	X33	Y33	Z33	X34	Y34	Z34	X35	Y35	Z35	X36	Y36	Z36	X37	Y37	Z37	X38	Y38	Z38	X39	Y39	Z39	X40	Y40	Z40	X41	Y41	Z41	X42	Y42	Z42	X43	Y43	Z43	X44	Y44	Z44	X45	Y45	Z45	X46	Y46	Z46	X47	Y47	Z47	

138	1.370	-925.48175	-432.59125	1642.14636	-1055.05249	-459.09097	1635.55371	-954.00464	-302.57382	1586.17773	-1080.94849	-330.47702	1585.22705	-1001.70526	-312.16898	1430.09570	-1005.06573	-287.95352	1098.90540	-996.06067	-424.02933	1354.82214	-983.70679	-466.53662	1181.80762	-1075.28015	-244.14055	1255.36169	-837.82587	-360.52020	1386.76050	-757.82220	-396.87259	1191.52881	-739.69281	-426.95731	1083.78796	-723.59265	-537.53766	983.79187	-775.82080	-655.08228	944.50342	-736.61865	-619.56354	897.62653	-739.64923	-706.42883	874.06171	-1160.64246	-382.13828	1381.70825	-1245.39856	-310.74045	1193.74585	-1259.55334	-297.76144	1071.75623	-1279.57190	-288.78751	951.93488	-1253.10852	-319.95218	802.28754	-1291.60754	-265.52466	816.08795	-1296.44312	-284.64746	733.97858	-889.32355	-461.35602	938.16516	-1110.39075	-476.66672	954.07599	-930.28717	-306.50769	967.32300	-1098.65820	-322.40237	975.49146	-848.47101	-342.25824	628.90228	-871.76080	-303.07202	468.14505	-879.45148	-142.63683	263.93671	-921.19568	-44.83945	122.30846	-964.87457	-0.97287	130.26401	-928.51996	-157.97757	33.95597	-1185.05042	-480.09665	628.57062	-1157.96777	-516.84283	511.16125	-1167.47253	-543.10815	248.61426	-1129.23035	-583.79248	64.94648	-1082.27649	-551.60278	39.41022	-1122.79260	-741.25507	42.16225	-1002.78241	-345.76529	1681.65784																					 
139	1.380	-926.28986	-442.38135	1643.22253	-1055.70361	-469.42776	1636.98767	-955.48840	-312.51495	1587.02917	-1082.30859	-341.06467	1586.35242	-1002.66937	-323.30112	1431.08081	-1005.54791	-299.88748	1099.45618	-997.21265	-435.01141	1356.17407	-984.76373	-478.14114	1183.35706	-1077.17322	-255.48836	1255.60339	-838.76117	-371.18274	1387.39246	-759.43555	-406.51620	1191.46130	-741.49756	-436.20480	1083.40222	-725.59778	-546.19092	982.81311	-777.69275	-663.56989	943.16962	-738.69006	-627.70587	896.34607	-741.57983	-714.46497	872.63696	-1161.98962	-393.32541	1382.58606	-1246.89905	-323.14240	1194.12476	-1261.16138	-311.06186	1072.01465	-1280.95288	-303.11270	952.02203	-1254.30225	-335.35022	802.92578	-1292.70508	-280.94891	816.04553	-1297.63696	-300.79718	734.06494	-890.23083	-473.48145	938.96228	-1111.00342	-489.79025	955.69135	-930.76874	-318.70596	967.64160	-1099.17969	-334.54645	977.21564	-849.91858	-356.54056	628.49042	-873.02228	-319.73019	467.20908	-880.93915	-152.97781	268.19131	-922.07782	-50.74228	129.33806	-965.72308	-8.17875	139.28308	-928.84790	-159.03842	34.21010	-1187.27527	-491.81674	631.05353	-1160.50330	-527.86145	513.09668	-1169.71326	-551.16064	249.74847	-1129.59131	-585.80969	65.23801	-1083.37354	-552.52350	40.08509	-1123.49011	-742.74023	38.90330	-1003.83453	-355.80338	1682.71753																					 
140	1.390	-926.99915	-452.14111	1644.51892	-1056.37268	-479.84845	1638.50818	-956.96466	-322.59241	1588.00342	-1083.75708	-351.76743	1587.67847	-1004.16772	-333.85858	1432.34204	-1006.08350	-311.65710	1100.38782	-998.33105	-445.81848	1357.58630	-985.68054	-489.60257	1185.05725	-1078.91565	-266.98346	1256.39050	-839.74200	-382.03748	1388.51245	-761.46588	-415.65054	1191.71155	-743.50098	-445.29733	1083.59338	-727.62646	-554.33203	981.99329	-779.53925	-671.46948	941.46185	-740.61963	-635.14539	894.83447	-743.39587	-721.73566	870.50848	-1163.15100	-404.55246	1383.86035	-1248.08203	-336.16974	1194.72498	-1262.61182	-324.93286	1072.56958	-1282.23486	-318.03433	952.46454	-1255.07654	-351.83527	803.83453	-1293.81177	-297.11807	816.26422	-1298.44104	-317.85724	734.47974	-891.39624	-485.55234	940.00800	-1111.51416	-502.40573	957.86255	-931.18329	-330.90985	968.22021	-1099.51538	-346.36642	979.29291	-851.28522	-371.69244	628.07233	-873.95563	-337.61530	466.32138	-882.17871	-164.23795	273.14612	-923.15485	-58.42182	137.52882	-967.53125	-17.42112	149.29828	-929.12860	-159.94545	34.53281	-1189.08350	-503.33710	633.57336	-1161.52759	-539.64563	515.32550	-1171.59778	-557.06165	250.21396	-1129.64624	-587.07782	65.37666	-1084.02393	-553.15161	40.44960	-1124.26196	-743.89648	37.25381	-1004.94550	-365.93317	1683.95471																					 
141	1.400	-927.80872	-461.93326	1646.07813	-1057.07605	-490.28241	1640.21814	-957.87628	-332.38046	1589.51062	-1085.06958	-362.42636	1589.06030	-1005.48102	-344.52515	1433.30432	-1006.52106	-323.06094	1101.78320	-999.32898	-456.76715	1359.19214	-986.46759	-500.97144	1186.77954	-1080.40991	-278.62708	1257.38562	-840.83624	-392.75150	1389.96387	-763.18170	-425.07034	1192.61768	-745.72211	-454.24277	1084.30457	-729.75110	-562.02734	981.26617	-781.27246	-678.78925	939.45361	-742.69910	-641.77386	893.11432	-744.95190	-728.23688	867.96680	-1164.11621	-415.75070	1385.41589	-1249.74170	-349.18665	1195.74304	-1263.94092	-339.09109	1073.41541	-1283.49670	-333.40454	953.22498	-1256.01074	-368.25424	804.96552	-1294.99414	-313.91739	816.71173	-1299.40869	-335.39752	735.28485	-892.76868	-497.54160	941.19470	-1112.07751	-514.39874	960.57312	-931.54034	-343.03760	969.18982	-1099.67224	-357.83087	981.53210	-852.62152	-387.34198	627.67206	-874.50311	-356.70468	465.40158	-883.70435	-177.01830	278.51544	-924.68591	-67.73332	146.25169	-969.86761	-28.43567	159.82304	-929.78607	-160.93631	34.98440	-1189.99487	-515.34491	636.39679	-1161.86255	-550.68805	517.19122	-1172.76379	-562.78333	250.96422	-1130.03821	-588.39679	65.72656	-1084.87598	-553.77783	40.88323	-1123.60974	-745.22565	36.11588	-1006.19598	-376.01398	1685.32458																					 
142	1.410	-928.64917	-471.70837	1647.74719	-1057.67896	-500.57147	1641.97754	-959.43365	-342.46216	1590.84680	-1086.22290	-372.94949	1590.65100	-1006.36389	-355.30658	1434.69324	-1007.19519	-334.24298	1103.41174	-1000.19305	-467.73822	1360.94543	-987.28131	-512.28204	1188.58374	-1081.67224	-290.14322	1258.68896	-841.90479	-403.39447	1391.69287	-764.98822	-434.39380	1193.84753	-748.07666	-463.01379	1085.30359	-731.81342	-569.32965	980.69751	-782.92938	-685.54236	937.14984	-744.57922	-647.62805	891.28717	-746.43140	-733.63330	864.92432	-1165.02234	-426.90195	1387.20789	-1250.92224	-362.51187	1196.80066	-1265.16589	-353.63644	1074.52563	-1284.67932	-349.24768	954.30597	-1256.69958	-385.56558	806.45667	-1296.30078	-331.11783	817.65649	-1300.25049	-353.42392	736.31708	-894.41180	-509.17325	942.50958	-1112.91284	-525.83783	963.65009	-931.87286	-354.92072	970.33478	-1099.74329	-369.02036	983.69952	-853.84778	-403.55057	627.15356	-874.68073	-376.77069	464.40030	-885.12793	-191.67154	283.95322	-926.23444	-78.81730	155.17955	-972.61456	-41.60519	170.60927	-930.53833	-162.20001	35.72818	-1190.10437	-527.52167	638.95825	-1162.02771	-560.69891	518.78040	-1173.22876	-569.05573	252.00725	-1130.06030	-590.15643	66.06070	-1085.43555	-554.15320	41.22500	-1122.37329	-746.33557	35.17204	-1007.34515	-386.02176	1686.83862																					 
143	1.420	-929.35327	-481.55307	1649.46765	-1058.34070	-510.99918	1643.61926	-960.97357	-352.60413	1592.39746	-1087.44763	-383.61102	1592.15002	-1008.07214	-366.30414	1435.49194	-1007.87585	-345.26785	1105.12769	-1000.95227	-478.57568	1362.62817	-988.08691	-523.59009	1190.44653	-1082.73853	-301.51636	1260.27454	-842.94092	-413.90866	1393.61975	-766.73175	-443.81021	1195.35449	-750.49683	-471.67032	1086.64514	-733.93213	-576.10901	980.08984	-784.47723	-691.84473	934.58759	-746.51422	-652.73499	889.22601	-747.99402	-738.35956	860.97345	-1165.75452	-438.09772	1389.13452	-1252.19434	-375.97662	1198.25232	-1266.21436	-368.38239	1075.80945	-1285.77014	-365.36539	955.60999	-1257.64966	-402.89780	808.21545	-1297.62170	-348.73126	818.84790	-1301.18555	-372.39493	737.80499	-896.17938	-520.53143	943.94330	-1114.04370	-536.87653	966.61804	-932.28564	-366.47910	971.45868	-1099.93982	-380.10440	985.73669	-854.83795	-420.15903	626.69550	-875.02728	-397.53537	463.33032	-886.52631	-207.99060	289.18631	-927.53741	-91.48367	163.91980	-975.13477	-56.43119	181.27898	-931.03693	-165.08771	37.67358	-1190.13135	-539.01611	641.00635	-1162.38574	-569.64398	519.92450	-1173.16626	-574.48029	252.68736	-1129.55334	-591.05347	66.25198	-1085.27686	-554.45618	41.44998	-1122.08289	-747.06750	34.46421	-1008.52612	-396.16031	1688.42566																					 
144	1.430	-930.07166	-491.36411	1651.03552	-1058.90295	-521.32623	1645.08997	-962.05823	-362.58179	1593.90466	-1088.55200	-394.10535	1593.58911	-1008.88000	-376.64804	1437.57227	-1008.80542	-356.22836	1106.71741	-1001.59265	-489.28989	1364.23975	-988.83887	-534.77765	1192.20898	-1083.75330	-312.89166	1261.96912	-843.93671	-424.24014	1395.65649	-768.22363	-453.75198	1197.14612	-752.95056	-479.99353	1088.00159	-736.01776	-582.48932	979.52246	-785.91077	-697.61896	931.69366	-747.83514	-657.54224	886.96399	-749.11127	-742.36041	857.26984	-1166.32703	-449.26547	1391.10974	-1253.30212	-389.48273	1199.50757	-1267.30884	-383.23221	1077.20166	-1286.89734	-381.70850	957.03149	-1258.42334	-420.75290	810.06598	-1298.90515	-366.97733	820.03961	-1302.16260	-391.09763	739.05103	-898.00592	-531.46057	945.39954	-1115.38367	-547.67468	969.14508	-932.91620	-377.43884	972.59375	-1100.29932	-390.95755	987.55518	-855.34375	-436.92044	626.01892	-875.38617	-418.52060	462.35150	-888.04614	-225.37975	294.12067	-928.88416	-105.21829	172.79227	-977.13263	-72.31281	192.11801	-931.65479	-169.87352	40.94517	-1190.65784	-548.82635	641.91541	-1162.70825	-577.31549	520.51996	-1172.75012	-578.68597	252.85905	-1129.02429	-591.56793	66.48910	-1084.99756	-554.73895	41.72913	-1122.11121	-747.78040	33.89124	-1009.55670	-406.28177	1689.94580																					 
145	1.440	-930.66998	-501.18634	1652.54700	-1059.33801	-531.69641	1646.44153	-963.50641	-372.86697	1594.89246	-1089.41992	-404.58319	1594.84680	-1009.91528	-387.24994	1438.42590	-1009.87750	-367.12302	1108.23083	-1002.09985	-499.93213	1365.76355	-989.56219	-545.71680	1193.80225	-1084.92188	-324.18924	1263.67371	-845.02130	-434.40576	1397.35461	-770.06158	-463.01215	1198.63281	-755.38953	-488.06543	1089.27625	-737.79572	-588.48285	978.62219	-787.07800	-703.03809	928.51538	-749.14612	-661.81226	884.78986	-750.26453	-746.12732	853.03992	-1166.79578	-460.58905	1393.04797	-1254.48999	-403.22809	1201.04272	-1268.39075	-398.10162	1078.65210	-1288.00574	-398.22928	958.52466	-1258.93811	-438.75247	811.81702	-1300.17322	-385.37100	821.42975	-1302.93774	-410.46048	740.52960	-899.48706	-542.06262	946.78674	-1116.79260	-558.17810	971.10815	-933.70685	-387.99701	973.58411	-1100.92322	-401.86673	989.14258	-856.49353	-453.69388	625.23468	-876.14276	-439.79266	461.48700	-889.57898	-244.33844	298.99142	-929.78479	-120.50203	181.75722	-978.32721	-89.39565	203.15718	-932.59180	-176.38577	45.67889	-1191.06433	-556.99127	642.74884	-1163.42554	-584.06116	520.74872	-1172.23315	-581.85730	252.84624	-1128.43555	-592.59875	66.64526	-1084.68701	-555.01660	41.97732	-1121.89050	-748.26208	33.43291	-1010.58075	-416.44376	1691.26880																					 
